<?xml version="1.0" encoding="UTF-8"?><svg id="Ebene_1" xmlns="http://www.w3.org/2000/svg" viewBox="0 0 293.96 40.2"><defs><style>.cls-1{fill:#fff;}.cls-2{fill:#ca2227;}.cls-3{fill:#113f6c;}.cls-4{fill:#676767;}.cls-5{fill:#103f6b;}</style></defs><rect class="cls-3" x="256.76" y=".02" width="37.19" height="37.19"/><path class="cls-1" d="m287.19,34.06c-1.99,0-3.61-1.62-3.61-3.61V6.79c0-.62-.5-1.12-1.12-1.12s-1.12.5-1.12,1.12v23.66c0,1.99-1.62,3.61-3.61,3.61s-3.61-1.62-3.61-3.61V6.79c0-.62-.5-1.12-1.12-1.12s-1.12.5-1.12,1.12v23.66c0,1.99-1.62,3.61-3.61,3.61s-3.61-1.62-3.61-3.61V6.79c0-.62-.5-1.12-1.12-1.12s-1.12.5-1.12,1.12v27.27h-2.5V6.79c0-1.99,1.62-3.61,3.61-3.61s3.61,1.62,3.61,3.61v23.66c0,.62.5,1.12,1.12,1.12s1.12-.5,1.12-1.12V6.79c0-1.99,1.62-3.61,3.61-3.61s3.61,1.62,3.61,3.61v23.66c0,.62.5,1.12,1.12,1.12s1.12-.5,1.12-1.12V6.79c0-1.99,1.62-3.61,3.61-3.61s3.61,1.62,3.61,3.61v23.66c0,.62.5,1.12,1.12,1.12s1.12-.5,1.12-1.12V3.18h2.5v27.27c0,1.99-1.62,3.61-3.61,3.61Z"/><path class="cls-5" d="m13.86,23.18h-3.51v-9.02H3.51v9.02H0V2.13h3.51v8.53h6.84V2.13h3.51v21.05Z"/><path class="cls-5" d="m22.33,23.47c-1.86,0-3.37-.7-4.53-2.11s-1.75-3.28-1.75-5.62v-.4c0-1.57.25-2.98.74-4.21.49-1.24,1.19-2.19,2.09-2.86s1.93-1,3.08-1c1.73,0,3.09.67,4.09,2.02.99,1.35,1.49,3.26,1.49,5.74v1.71h-8.06c.11,1.02.44,1.84.99,2.46.55.62,1.25.92,2.09.92,1.3,0,2.32-.58,3.05-1.75l1.66,2.3c-.51.89-1.19,1.58-2.06,2.07s-1.82.74-2.88.74Zm-.39-12.85c-.67,0-1.21.28-1.63.84-.42.56-.68,1.37-.8,2.41h4.7v-.33c-.02-.93-.22-1.65-.61-2.16-.39-.51-.94-.76-1.66-.76Z"/><path class="cls-5" d="m29.16,3.49c0-.63.17-1.14.51-1.55.34-.4.8-.61,1.39-.61s1.04.2,1.38.61c.34.4.52.92.52,1.55s-.17,1.16-.52,1.56c-.35.4-.81.61-1.37.61s-1.03-.2-1.37-.61c-.35-.4-.52-.92-.52-1.56Zm3.59,19.69h-3.39V7.54h3.39v15.64Z"/><path class="cls-5" d="m38.83,19.81h6.19v3.37h-10.51v-2.54l5.95-9.73h-5.78v-3.37h10.14v2.46l-6,9.81Z"/><path class="cls-5" d="m54.24,21.59c-.83,1.25-1.99,1.88-3.46,1.88-1.36,0-2.39-.48-3.11-1.45-.71-.96-1.08-2.38-1.09-4.24V7.54h3.38v10.12c0,1.63.6,2.45,1.8,2.45s1.93-.49,2.36-1.48V7.54h3.39v15.64h-3.18l-.09-1.59Z"/><path class="cls-5" d="m63.01,7.54l.11,1.81c.9-1.4,2.12-2.1,3.64-2.1,1.34,0,2.34.49,2.99,1.46.66.97.99,2.43,1.01,4.37v10.1h-3.38v-10c0-.89-.16-1.53-.47-1.93-.31-.4-.83-.6-1.56-.6-.95,0-1.67.5-2.14,1.5v11.03h-3.38V7.54h3.18Z"/><path class="cls-5" d="m72.56,15.24c0-2.4.46-4.33,1.39-5.8.92-1.47,2.17-2.2,3.74-2.2,1.39,0,2.47.59,3.24,1.76l.14-1.47h3.06v15.12c0,1.37-.25,2.56-.75,3.57-.5,1.01-1.21,1.78-2.12,2.31-.91.53-1.98.8-3.21.8-.93,0-1.83-.23-2.71-.69-.88-.46-1.55-1.05-2-1.77l1.5-2.54c.84,1.17,1.86,1.75,3.06,1.75.9,0,1.59-.3,2.09-.89.5-.59.75-1.43.75-2.52v-.84c-.78,1.09-1.81,1.63-3.08,1.63-1.52,0-2.75-.73-3.69-2.2-.94-1.47-1.41-3.42-1.41-5.85v-.17Zm3.38.31c0,1.42.23,2.53.69,3.34s1.09,1.21,1.9,1.21c1.03,0,1.77-.48,2.21-1.43v-6.59c-.45-.96-1.18-1.43-2.19-1.43-.81,0-1.45.41-1.91,1.23-.46.82-.7,2.05-.7,3.68Z"/><path class="cls-5" d="m93.28,18.85c0-.51-.2-.91-.61-1.21-.41-.29-1.07-.56-1.97-.79-3.01-.78-4.52-2.36-4.52-4.74,0-1.39.47-2.55,1.4-3.48.93-.93,2.15-1.4,3.66-1.4,1.61,0,2.89.47,3.85,1.4.96.93,1.45,2.15,1.45,3.64h-3.38c0-.6-.16-1.09-.47-1.48-.31-.39-.8-.59-1.46-.59-.57,0-1.01.16-1.32.48-.31.32-.47.72-.47,1.21,0,.46.18.84.53,1.12.36.28.95.53,1.8.74.84.21,1.55.44,2.13.7,1.79.81,2.68,2.21,2.68,4.21,0,1.43-.5,2.58-1.49,3.46-.99.88-2.27,1.32-3.84,1.32-1.06,0-2-.23-2.82-.7-.82-.47-1.47-1.11-1.94-1.92-.47-.81-.7-1.69-.7-2.64h3.21c.03.74.25,1.31.67,1.71.41.4.97.59,1.66.59.65,0,1.14-.15,1.47-.46.33-.3.5-.7.5-1.19Z"/><path class="cls-5" d="m98.8,23.18V2.13h5.24c1.5,0,2.84.42,4.02,1.25,1.18.83,2.1,2.02,2.77,3.56.66,1.54.99,3.28.99,5.24v.97c0,1.96-.33,3.7-.98,5.22s-1.57,2.7-2.76,3.54c-1.19.84-2.52,1.26-4.01,1.27h-5.28Zm3.51-17.53v14.05h1.7c1.37,0,2.42-.55,3.15-1.66.73-1.11,1.1-2.69,1.11-4.76v-1.11c0-2.14-.36-3.76-1.08-4.86-.72-1.1-1.77-1.66-3.15-1.66h-1.73Z"/><path class="cls-5" d="m113.79,3.49c0-.63.17-1.14.51-1.55.34-.4.8-.61,1.39-.61s1.04.2,1.38.61c.34.4.51.92.51,1.55s-.17,1.16-.52,1.56c-.35.4-.81.61-1.37.61s-1.03-.2-1.37-.61c-.35-.4-.52-.92-.52-1.56Zm3.59,19.69h-3.39V7.54h3.39v15.64Z"/><path class="cls-5" d="m126.64,18.85c0-.51-.2-.91-.61-1.21-.41-.29-1.07-.56-1.97-.79-3.01-.78-4.52-2.36-4.52-4.74,0-1.39.47-2.55,1.4-3.48.93-.93,2.15-1.4,3.66-1.4,1.61,0,2.89.47,3.85,1.4.96.93,1.45,2.15,1.45,3.64h-3.38c0-.6-.16-1.09-.47-1.48-.31-.39-.8-.59-1.46-.59-.57,0-1.01.16-1.32.48-.31.32-.47.72-.47,1.21,0,.46.18.84.53,1.12.36.28.95.53,1.8.74.84.21,1.55.44,2.13.7,1.79.81,2.68,2.21,2.68,4.21,0,1.43-.5,2.58-1.49,3.46-.99.88-2.27,1.32-3.84,1.32-1.06,0-2-.23-2.82-.7-.82-.47-1.47-1.11-1.94-1.92-.47-.81-.7-1.69-.7-2.64h3.21c.03.74.25,1.31.67,1.71.41.4.97.59,1.66.59.65,0,1.14-.15,1.47-.46.33-.3.5-.7.5-1.19Z"/><path class="cls-5" d="m136.97,20.1c.62,0,1.13-.21,1.52-.64.39-.42.59-.99.61-1.69h3.17c0,1.06-.24,2.03-.7,2.91s-1.09,1.57-1.89,2.05c-.8.49-1.68.73-2.65.73-1.81,0-3.24-.71-4.28-2.13-1.05-1.42-1.57-3.38-1.57-5.89v-.27c0-2.41.52-4.33,1.56-5.77,1.04-1.44,2.46-2.15,4.27-2.15,1.58,0,2.85.56,3.81,1.67.96,1.11,1.44,2.59,1.46,4.44h-3.17c-.02-.81-.22-1.47-.61-1.98-.39-.51-.9-.76-1.54-.76-.79,0-1.38.36-1.78,1.06-.4.71-.6,1.86-.6,3.45v.43c0,1.61.2,2.77.6,3.47.4.7,1,1.06,1.81,1.06Z"/><path class="cls-5" d="m143.43,15.21c0-1.55.24-2.93.73-4.15.48-1.21,1.18-2.15,2.09-2.82.91-.66,1.96-1,3.16-1,1.71,0,3.1.65,4.18,1.94,1.08,1.29,1.68,3.05,1.81,5.26l.02,1.07c0,2.4-.54,4.32-1.63,5.77-1.08,1.45-2.54,2.18-4.36,2.18s-3.28-.72-4.37-2.17c-1.09-1.45-1.63-3.41-1.63-5.9v-.19Zm3.38.3c0,1.49.23,2.62.68,3.41.45.79,1.1,1.18,1.94,1.18s1.46-.39,1.92-1.17.69-2.02.69-3.73c0-1.46-.23-2.59-.69-3.39-.46-.8-1.11-1.2-1.94-1.2s-1.47.4-1.92,1.19c-.45.8-.68,2.03-.68,3.7Z"/><path class="cls-5" d="m164.81,21.59c-.83,1.25-1.99,1.88-3.46,1.88-1.36,0-2.39-.48-3.11-1.45-.71-.96-1.08-2.38-1.09-4.24V7.54h3.38v10.12c0,1.63.6,2.45,1.8,2.45s1.93-.49,2.36-1.48V7.54h3.39v15.64h-3.18l-.09-1.59Z"/><path class="cls-5" d="m173.58,7.54l.11,1.81c.91-1.4,2.12-2.1,3.64-2.1,1.34,0,2.34.49,3,1.46.65.97.99,2.43,1.01,4.37v10.1h-3.38v-10c0-.89-.16-1.53-.47-1.93-.31-.4-.83-.6-1.56-.6-.95,0-1.66.5-2.14,1.5v11.03h-3.38V7.54h3.18Z"/><path class="cls-5" d="m187.65,3.69v3.84h2.16v3.06h-2.16v7.81c0,.58.09.99.27,1.24.18.25.52.38,1.03.38.37,0,.71-.03.99-.1v3.17c-.66.25-1.35.38-2.05.38-2.37,0-3.58-1.48-3.63-4.44v-8.43h-1.85v-3.06h1.85v-3.84h3.38Z"/><path class="cls-5" d="m222.1,21.12c0-.67.18-1.2.54-1.62.36-.41.82-.62,1.36-.62s1.01.21,1.37.62c.36.41.54.95.54,1.62s-.18,1.19-.54,1.6c-.36.41-.82.61-1.38.61s-1.01-.2-1.37-.61c-.36-.41-.54-.94-.54-1.6Z"/><path class="cls-5" d="m227.43,15.24c0-2.44.44-4.38,1.33-5.83s2.1-2.17,3.63-2.17c1.23,0,2.25.57,3.05,1.71V.97h3.39v22.2h-3.05l-.16-1.66c-.84,1.3-1.93,1.95-3.25,1.95-1.49,0-2.68-.73-3.59-2.18-.9-1.45-1.35-3.47-1.35-6.05Zm3.38.31c0,1.47.21,2.59.62,3.37.41.78,1.01,1.17,1.8,1.17,1.05,0,1.78-.55,2.21-1.64v-6.18c-.42-1.09-1.15-1.64-2.19-1.64-1.63,0-2.45,1.64-2.45,4.91Z"/><path class="cls-5" d="m246.88,23.47c-1.86,0-3.37-.7-4.53-2.11-1.17-1.41-1.75-3.28-1.75-5.62v-.4c0-1.57.25-2.98.74-4.21.49-1.24,1.19-2.19,2.09-2.86.9-.67,1.93-1,3.08-1,1.73,0,3.09.67,4.09,2.02.99,1.35,1.49,3.26,1.49,5.74v1.71h-8.06c.11,1.02.44,1.84.99,2.46.55.62,1.25.93,2.09.93,1.3,0,2.32-.58,3.05-1.75l1.66,2.3c-.51.89-1.19,1.58-2.06,2.07-.87.5-1.82.74-2.88.74Zm-.39-12.85c-.67,0-1.21.28-1.63.84-.42.56-.68,1.36-.8,2.41h4.7v-.33c-.02-.93-.22-1.65-.61-2.16s-.94-.76-1.66-.76Z"/><path class="cls-2" d="m205.37,19.44v4.19h-12.8c.14-1.58.55-3.09,1.25-4.5.69-1.42,2.06-3.3,4.11-5.64,1.65-1.89,2.66-3.18,3.03-3.85.5-.93.75-1.85.75-2.76,0-1.01-.22-1.78-.66-2.32-.44-.54-1.04-.81-1.81-.81s-1.37.28-1.82.85-.71,1.51-.78,2.83l-3.64-.45c.22-2.48.9-4.27,2.04-5.35,1.14-1.08,2.57-1.62,4.29-1.62,1.88,0,3.36.63,4.43,1.88,1.07,1.25,1.61,2.81,1.61,4.67,0,1.06-.15,2.07-.46,3.03-.31.96-.79,1.96-1.46,3.01-.44.7-1.24,1.7-2.39,3-1.15,1.31-1.88,2.17-2.19,2.6-.31.43-.56.85-.75,1.25h7.25Z"/><path class="cls-2" d="m214.59,23.63v-4.74h-7.8v-3.95l8.26-14.95h3.07v14.93h2.36v3.97h-2.36v4.74h-3.53Zm0-8.7V6.89l-4.38,8.04h4.38Z"/><path class="cls-4" d="m130.68,37.23h-5.29v-8.33h5.17v1.19h-3.88v2.2h3.06v1.19h-3.06v2.56h4v1.19Z"/><path class="cls-4" d="m137.01,37.23h-1.21v-3.21c0-.6-.11-1.04-.33-1.32-.22-.27-.58-.41-1.08-.41-.68,0-1.16.23-1.43.68v4.26h-1.21v-5.87h1.02l.08.52c.5-.43,1.07-.64,1.71-.64,1.63,0,2.44.92,2.44,2.77v3.21Z"/><path class="cls-4" d="m143.37,34.4h-4.1c.13,1.26.81,1.89,2.05,1.89.61,0,1.19-.13,1.73-.39l.12.99c-.64.3-1.3.45-1.96.45-.5,0-.95-.08-1.35-.24-.4-.16-.73-.38-1-.65-.27-.27-.48-.6-.62-.98-.14-.38-.21-.78-.21-1.22s.07-.82.2-1.18c.13-.37.33-.69.57-.96.25-.27.55-.49.9-.64.35-.15.75-.23,1.18-.23.37,0,.72.06,1.03.18.31.12.58.29.81.51.23.22.4.48.52.79.12.31.18.65.18,1.04,0,.12,0,.23-.02.34-.01.11-.03.21-.04.32Zm-2.49-2.12c-.83,0-1.34.43-1.54,1.29h2.85c0-.39-.11-.7-.33-.93-.22-.23-.55-.35-.98-.35Z"/><path class="cls-4" d="m147.7,31.18l-.25,1.25h-.43c-.12,0-.24.02-.37.06-.13.04-.25.09-.36.15-.12.06-.22.14-.31.22-.09.08-.16.17-.21.27v4.1h-1.26v-5.87h1.06l.1.85c.62-.68,1.23-1.02,1.85-1.02h.19Z"/><path class="cls-4" d="m150.7,40.2c-.45,0-.85-.05-1.2-.14s-.63-.22-.86-.39c-.23-.16-.4-.35-.52-.56-.12-.21-.17-.43-.17-.67,0-.61.34-1.05,1.01-1.32-.38-.2-.57-.46-.57-.77,0-.36.22-.65.65-.85-.65-.48-.98-1.12-.98-1.92,0-.33.06-.64.17-.93.11-.29.27-.54.48-.74s.46-.37.75-.49c.29-.12.63-.18,1-.18.55,0,1.03.14,1.44.4.4-.21.85-.31,1.37-.31h.19l-.12.79h-.36c-.07,0-.15,0-.25.02s-.2.03-.32.04c.32.39.48.85.48,1.37,0,.31-.05.61-.16.89-.11.28-.26.53-.46.74-.2.21-.45.39-.74.51-.29.13-.63.19-1,.19-.25,0-.5-.03-.77-.1-.15.08-.23.18-.23.3,0,.08.02.14.07.19.04.05.13.09.26.12.13.04.3.07.52.11.22.04.51.09.86.14.26.05.53.11.8.17.27.07.53.16.76.29.23.12.42.28.57.48.15.2.23.45.25.75,0,.26-.07.51-.2.73s-.32.42-.57.59c-.25.17-.56.3-.92.39-.36.1-.77.14-1.22.14Zm.18-2.65c-.1,0-.22-.01-.38-.04-.15-.02-.34-.06-.57-.1-.26.09-.48.22-.64.39-.17.17-.25.36-.25.57,0,.27.15.49.44.66.29.17.7.26,1.23.26s.94-.09,1.26-.26c.31-.17.47-.39.47-.63,0-.4-.52-.69-1.56-.86Zm-.4-5.37c-.4,0-.72.13-.94.38-.22.25-.33.59-.33,1,0,.44.11.78.34,1.03.23.25.54.38.95.38s.72-.13.94-.39c.22-.26.33-.61.33-1.04s-.11-.76-.34-1c-.23-.24-.54-.36-.95-.36Z"/><path class="cls-4" d="m155.51,30.18h-1.21v-1.29h1.21v1.29Zm0,7.05h-1.21v-5.87h1.21v5.87Z"/><path class="cls-4" d="m161.94,34.4h-4.1c.13,1.26.81,1.89,2.05,1.89.61,0,1.19-.13,1.73-.39l.12.99c-.64.3-1.3.45-1.96.45-.5,0-.95-.08-1.35-.24-.4-.16-.73-.38-1-.65-.27-.27-.48-.6-.62-.98-.14-.38-.21-.78-.21-1.22s.07-.82.2-1.18c.13-.37.33-.69.57-.96.25-.27.55-.49.9-.64.35-.15.75-.23,1.18-.23.37,0,.72.06,1.03.18.31.12.58.29.81.51.23.22.4.48.52.79.12.31.18.65.18,1.04,0,.12,0,.23-.02.34s-.03.21-.04.32Zm-2.49-2.12c-.83,0-1.34.43-1.54,1.29h2.85c0-.39-.11-.7-.33-.93-.22-.23-.55-.35-.98-.35Z"/><path class="cls-4" d="m165.13,36.37l-.15.98h-.4c-.52,0-.9-.14-1.14-.42-.25-.28-.37-.62-.37-1.04v-7.6h1.2v6.98c0,.25,0,.44.03.58.02.14.06.25.12.33.06.08.15.12.26.15.11.02.27.04.46.04Z"/><path class="cls-4" d="m168.51,37.34c-.44,0-.85-.08-1.21-.23-.36-.15-.67-.37-.92-.64-.25-.27-.45-.6-.59-.96-.14-.37-.21-.77-.21-1.21s.07-.83.2-1.2c.13-.37.33-.7.58-.97.25-.27.56-.49.92-.65.36-.16.77-.24,1.22-.24s.86.08,1.22.24c.36.16.67.38.93.65.26.28.45.6.59.97.13.37.2.77.2,1.2s-.07.83-.2,1.2c-.14.37-.33.69-.58.96-.25.27-.56.49-.93.65-.37.16-.77.24-1.23.24Zm1.25-4.52c-.3-.36-.72-.54-1.25-.54s-.96.18-1.25.54c-.29.36-.44.85-.44,1.48s.14,1.12.43,1.47c.29.35.71.53,1.26.53s.97-.18,1.26-.54c.29-.36.44-.85.44-1.46s-.15-1.11-.45-1.48Zm-1.79-2.71h-.94v-1.21h.94v1.21Zm2.01,0h-.94v-1.21h.94v1.21Z"/><path class="cls-4" d="m174.21,37.34c-.85,0-1.52-.16-2-.49l.13-1.11c.17.14.43.28.77.4.34.13.69.19,1.05.19s.63-.06.8-.19c.18-.13.27-.3.27-.51,0-.23-.07-.4-.2-.51-.14-.11-.31-.2-.53-.27-.22-.07-.47-.15-.74-.23-.28-.08-.56-.22-.85-.4-.21-.13-.36-.3-.46-.49-.1-.19-.15-.43-.15-.71,0-.25.04-.48.13-.7.09-.22.22-.41.4-.57.18-.16.4-.29.68-.38.27-.1.6-.14.98-.14.63,0,1.19.14,1.68.4l-.13,1.07c-.44-.37-.94-.56-1.5-.56-.33,0-.6.06-.79.18-.19.12-.29.31-.29.57,0,.14.04.28.13.4.08.12.25.22.51.3l.73.23c.19.06.38.13.58.21.19.08.37.19.53.33.16.14.29.3.39.51.1.2.15.45.15.73,0,.19-.03.39-.09.59-.06.2-.17.39-.34.56-.17.17-.4.31-.69.42-.29.11-.67.17-1.14.17Z"/><path class="cls-4" d="m182.45,37.23h-1.11l-.08-.55c-.37.44-.88.67-1.51.67-1.52,0-2.29-.89-2.29-2.67v-3.32h1.21v3.13c0,.62.1,1.08.31,1.37.21.29.54.44.99.44.56,0,.98-.2,1.26-.61v-4.33h1.21v5.87Z"/><path class="cls-4" d="m189.14,37.23h-1.21v-3.21c0-.6-.11-1.04-.33-1.32-.22-.27-.58-.41-1.08-.41-.68,0-1.16.23-1.43.68v4.26h-1.21v-5.87h1.02l.08.52c.5-.43,1.07-.64,1.71-.64,1.63,0,2.44.92,2.44,2.77v3.21Z"/><path class="cls-4" d="m192.86,40.2c-.45,0-.85-.05-1.2-.14s-.63-.22-.86-.39c-.23-.16-.4-.35-.52-.56-.12-.21-.17-.43-.17-.67,0-.61.34-1.05,1.01-1.32-.38-.2-.57-.46-.57-.77,0-.36.22-.65.65-.85-.65-.48-.98-1.12-.98-1.92,0-.33.06-.64.17-.93.11-.29.27-.54.48-.74s.46-.37.75-.49c.29-.12.63-.18,1-.18.55,0,1.03.14,1.44.4.4-.21.85-.31,1.37-.31h.19l-.12.79h-.36c-.07,0-.15,0-.25.02s-.2.03-.32.04c.32.39.48.85.48,1.37,0,.31-.05.61-.16.89-.11.28-.26.53-.46.74-.2.21-.45.39-.74.51-.29.13-.63.19-1,.19-.25,0-.5-.03-.77-.1-.15.08-.23.18-.23.3,0,.08.02.14.07.19.04.05.13.09.26.12.13.04.3.07.52.11.22.04.51.09.86.14.26.05.53.11.8.17.27.07.53.16.76.29.23.12.42.28.57.48.15.2.23.45.25.75,0,.26-.07.51-.2.73s-.32.42-.57.59c-.25.17-.56.3-.92.39-.36.1-.77.14-1.22.14Zm.18-2.65c-.1,0-.22-.01-.38-.04-.15-.02-.34-.06-.57-.1-.26.09-.48.22-.64.39-.17.17-.25.36-.25.57,0,.27.15.49.44.66.29.17.7.26,1.23.26s.94-.09,1.26-.26c.31-.17.47-.39.47-.63,0-.4-.52-.69-1.56-.86Zm-.4-5.37c-.4,0-.72.13-.94.38-.22.25-.33.59-.33,1,0,.44.11.78.34,1.03.23.25.54.38.95.38s.72-.13.94-.39c.22-.26.33-.61.33-1.04s-.11-.76-.34-1c-.23-.24-.54-.36-.95-.36Z"/><path class="cls-4" d="m201.45,34.4h-4.1c.13,1.26.81,1.89,2.05,1.89.61,0,1.19-.13,1.73-.39l.12.99c-.64.3-1.3.45-1.96.45-.5,0-.95-.08-1.35-.24-.4-.16-.73-.38-1-.65-.27-.27-.48-.6-.62-.98-.14-.38-.21-.78-.21-1.22s.07-.82.2-1.18c.13-.37.33-.69.57-.96.25-.27.55-.49.9-.64.35-.15.75-.23,1.18-.23.37,0,.72.06,1.03.18.31.12.58.29.81.51.23.22.4.48.52.79.12.31.18.65.18,1.04,0,.12,0,.23-.02.34s-.03.21-.04.32Zm-2.49-2.12c-.83,0-1.34.43-1.54,1.29h2.85c0-.39-.11-.7-.33-.93-.22-.23-.55-.35-.98-.35Z"/><path class="cls-4" d="m207.84,37.23h-1.21v-3.21c0-.6-.11-1.04-.33-1.32-.22-.27-.58-.41-1.08-.41-.68,0-1.16.23-1.43.68v4.26h-1.21v-5.87h1.02l.08.52c.5-.43,1.07-.64,1.71-.64,1.63,0,2.44.92,2.44,2.77v3.21Z"/><path class="cls-4" d="m210.38,37.23h-1.21v-1.2h1.21v1.2Z"/><path class="cls-4" d="m219.76,30.08h-3.83v2.2h2.96v1.19h-2.96v3.75h-1.26v-8.33h5.1v1.19Z"/><path class="cls-4" d="m225.16,37.23h-1.11l-.08-.55c-.37.44-.88.67-1.51.67-1.52,0-2.29-.89-2.29-2.67v-3.32h1.21v3.13c0,.62.1,1.08.31,1.37.21.29.54.44.99.44.56,0,.98-.2,1.26-.61v-4.33h1.21v5.87Zm-2.87-7.12h-.94v-1.21h.94v1.21Zm2.01,0h-.94v-1.21h.94v1.21Z"/><path class="cls-4" d="m229.77,31.18l-.25,1.25h-.43c-.12,0-.24.02-.37.06-.13.04-.25.09-.36.15-.12.06-.22.14-.31.22-.09.08-.16.17-.21.27v4.1h-1.26v-5.87h1.06l.1.85c.62-.68,1.23-1.02,1.85-1.02h.19Z"/><path class="cls-4" d="m238.14,36.37l-.15.98h-.24c-.43,0-.74-.06-.95-.19-.2-.13-.37-.33-.51-.61-.45.53-1.05.8-1.8.8-.26,0-.5-.04-.72-.12-.22-.08-.4-.2-.56-.35-.15-.15-.27-.33-.36-.54-.08-.21-.12-.45-.12-.71,0-.4.11-.73.33-.99.22-.27.5-.48.85-.64.34-.16.71-.28,1.11-.35.4-.07.78-.11,1.14-.11,0-.47-.11-.79-.29-.96-.19-.17-.49-.26-.91-.26-.51,0-1.03.16-1.57.49l-.14-.98c.59-.39,1.27-.58,2.05-.58.73,0,1.26.2,1.59.61.33.4.49,1.09.49,2.06v1.33c0,.22,0,.41.02.55.02.15.05.26.09.35.04.08.11.14.18.18.08.04.19.05.32.05h.14Zm-1.96-.64v-1.38c-1.46.06-2.19.46-2.19,1.21,0,.56.29.83.87.83.52,0,.96-.22,1.32-.67Z"/><path class="cls-4" d="m241.03,36.37l-.15.98h-.4c-.52,0-.9-.14-1.14-.42-.25-.28-.37-.62-.37-1.04v-7.6h1.2v6.98c0,.25,0,.44.03.58.02.14.06.25.12.33.06.08.15.12.26.15.11.02.27.04.46.04Z"/><path class="cls-4" d="m243.94,36.37l-.15.98h-.4c-.52,0-.9-.14-1.14-.42-.25-.28-.37-.62-.37-1.04v-7.6h1.2v6.98c0,.25,0,.44.03.58.02.14.06.25.12.33.06.08.15.12.26.15.11.02.27.04.46.04Z"/><path class="cls-4" d="m249.74,34.4h-4.1c.13,1.26.81,1.89,2.05,1.89.61,0,1.19-.13,1.73-.39l.12.99c-.64.3-1.3.45-1.96.45-.5,0-.95-.08-1.35-.24-.4-.16-.73-.38-1-.65-.27-.27-.48-.6-.62-.98-.14-.38-.21-.78-.21-1.22s.07-.82.2-1.18c.13-.37.33-.69.57-.96.25-.27.55-.49.9-.64.35-.15.75-.23,1.18-.23.37,0,.72.06,1.03.18.31.12.58.29.81.51.23.22.4.48.52.79.12.31.18.65.18,1.04,0,.12,0,.23-.02.34s-.03.21-.04.32Zm-2.49-2.12c-.83,0-1.34.43-1.54,1.29h2.85c0-.39-.11-.7-.33-.93-.22-.23-.55-.35-.98-.35Z"/><path class="cls-4" d="m252.04,37.23h-1.21v-1.2h1.21v1.2Z"/></svg>